<?xml version="1.0" encoding="utf-8"?>
<!-- Generator: Adobe Illustrator 19.0.0, SVG Export Plug-In . SVG Version: 6.00 Build 0)  -->
<svg version="1.1" id="Layer_1" xmlns="http://www.w3.org/2000/svg" xmlns:xlink="http://www.w3.org/1999/xlink" x="0px" y="0px"
	 viewBox="0 0 500 310" style="enable-background:new 0 0 500 310;" xml:space="preserve">
<style type="text/css">
	.st0{fill:#E9292B;}
	.st1{fill:#249045;}
	.st2{fill:#F8BC1B;}
	.st3{fill:#212121;}
	.st4{fill:#BE9E4B;}
	.st5{fill:#EB2727;}
	.st6{fill:#30A849;}
	.st7{fill:#FFE24D;}
	.st8{fill:#FFFFFF;}
	.st9{fill:#010101;}
</style>
<rect id="XMLID_659_" x="399.2" y="44.3" class="st0" width="8.9" height="54.9"/>
<rect id="XMLID_661_" x="399.2" y="210.9" class="st1" width="8.9" height="54.9"/>
<polygon id="XMLID_662_" class="st2" points="403.2,141.8 407.2,128.5 407.2,142.2 414.7,131.1 410.7,144 421.3,135.6 413.8,146.7 
	426.2,141.8 415.6,150.2 429.3,148.9 416.5,153.7 429.8,156.8 416,157.7 428,164.8 414.7,161.7 424,171.5 412.5,164.8 418.2,176.8 
	408.9,167 411.1,180.3 405.4,167.9 403.2,181.7 401.4,167.9 395.6,180.3 397.4,167 388.1,176.8 394.3,164.8 382.3,171.5 
	391.6,161.7 378.4,164.8 390.3,157.7 376.6,156.8 389.9,153.7 377.5,148.9 390.8,150.2 380.1,141.8 393,146.7 385,135.6 395.6,144 
	391.6,131.1 399.2,142.2 399.2,128.5 "/>
<g id="XMLID_339_">
	<defs>
		<rect id="SVGID_3_" x="-5685.9" y="-6848.4" width="14400" height="14400"/>
	</defs>
	<clipPath id="SVGID_2_">
		<use xlink:href="#SVGID_3_"  style="overflow:visible;"/>
	</clipPath>
</g>
<g id="XMLID_539_">
	<g id="XMLID_511_">
		<defs>
			<rect id="SVGID_1_" x="-6636.4" y="-6604.5" width="14400" height="14400"/>
		</defs>
		<clipPath id="SVGID_4_">
			<use xlink:href="#SVGID_1_"  style="overflow:visible;"/>
		</clipPath>
	</g>
</g>
<path id="XMLID_216_" class="st3" d="M66.9,230.4c0,0-25.1-5.9-61.8,22.9c0,0,16.6-1.6,10.4,6.6L1.7,278c0,0-3.2,3.7-0.6,6.3
	c2.6,2.6,41.9-5.6,54.1-13.3l-14.8-14.2L66.9,230.4z"/>
<path id="XMLID_215_" class="st3" d="M261.5,230.4c0,0,25.1-5.9,61.8,22.9c0,0-16.6-1.6-10.4,6.6l13.8,18.2c0,0,3.2,3.7,0.6,6.3
	s-41.9-5.6-54.1-13.3l14.8-14.2L261.5,230.4z"/>
<path id="XMLID_214_" class="st3" d="M286.1,256.8l-28-27.4c0,0-33.9,38.4-93.9,38.4c-60-0.1-93.9-38.4-93.9-38.4l-28,27.4
	c0,0,44.9,53.1,121.7,53.2v0c0.1,0,0.1,0,0.2,0c0.1,0,0.1,0,0.2,0v0C241.1,309.8,286.1,256.8,286.1,256.8"/>
<path id="XMLID_213_" class="st3" d="M139.2,244.9c0,0-7.5,8.4,0.9,12.1c0,0,7.7,1.2,2.8,6.6l-3.7,4.4c0,0,1.6-4.1,1.1-6.5
	c0,0-7.4-3.4-8.7-6.3c0,0-5.8-1.2-9.2,8.8c0,0,2.1-9.4-1.7-11.5c0,0-8.4,0.3-10.9-2.2c-2-2-2.6,7-2.6,7c-1.5-19.3,4.4-7.9,10.7-9.9
	c6.3-2,3.2-9.6,3.2-9.6L139.2,244.9z"/>
<path id="XMLID_212_" class="st4" d="M138.5,244.2c-3,3.4-5,8.5-1.3,12.1c1.7,1.6,4.8,1.5,6.1,3.4c1.2,1.7-3.8,6.4-4.9,7.6
	c0.5,0.3,1,0.6,1.5,0.9c0.6-1.5,2.5-6.6,0.4-7.6c-1.4-0.6-2.7-1.4-3.9-2.2c-1-0.6-1.9-1.3-2.8-2c-0.6-0.5-1-1.6-1.7-2
	c-1.1-0.7-3,0.1-4.1,0.6c-3.5,1.5-5.3,5.5-6.5,8.8c0.6,0.2,1.2,0.3,1.8,0.5c0.6-2.8,0.8-5.8,0.3-8.7c-0.3-1.6-1.1-2.9-2.5-3.8
	c-0.7-0.5-2.5-0.1-3.3-0.2c-2.4-0.1-5.5-0.3-7.4-1.9c-0.6-0.5-1.7-0.9-2.3-0.1c-1.6,2-1.7,5.2-1.9,7.7h1.8
	c-0.1-1.4-1.4-10.5,1.4-10.5c2,0,4,1.6,6,1.7c6.4,0.6,8.5-5.9,6.4-11c-0.4,0.4-0.8,0.8-1.1,1.1c6.1,2.4,12.2,4.7,18.3,7.1
	c1.1,0.4,1.6-1.4,0.5-1.8c-6.1-2.4-12.2-4.7-18.3-7.1c-0.6-0.2-1.4,0.5-1.1,1.1c1.3,3.2,1.2,7.1-2.5,8.5c-2.1,0.8-4.5-0.5-6.5-1.2
	c-6.6-2.3-5.1,8.7-4.9,12c0.1,1.2,1.8,1.2,1.8,0c0.2-2,0.3-4.2,1.1-6c-0.3,0.6,6.7,2,7.3,2c1.2,0.1,2.5,0.2,3.7,0.2
	c1.3,0,1.7,2.6,1.8,3.6c0.3,2.2,0,4.5-0.5,6.7c-0.3,1.2,1.4,1.6,1.8,0.5c1.2-3.2,2.9-6.7,6.3-7.9c1.9-0.7,1.5-0.2,2.5,0.9
	c1.7,1.9,4.3,3.2,6.6,4.4c1.4,0.7,0.9,0.2,0.9,1.4c0,1.5-0.6,3.2-1.1,4.6c-0.3,0.9,1,1.6,1.5,0.9c2.1-2.5,8.5-8,4-11.1
	c-2.4-1.6-5.6-1.3-6.7-4.7c-0.7-2.4,1.2-5.5,2.7-7.2C140.6,244.6,139.3,243.3,138.5,244.2"/>
<path id="XMLID_211_" class="st3" d="M189.2,244.9c0,0,7.5,8.4-0.9,12.1c0,0-7.6,1.2-2.8,6.6l3.7,4.4c0,0-1.6-4.1-1.1-6.5
	c0,0,7.4-3.4,8.7-6.3c0,0,5.8-1.2,9.2,8.8c0,0-2.1-9.4,1.7-11.5c0,0,8.4,0.3,10.9-2.2c2-2,2.6,7,2.6,7c1.5-19.3-4.4-7.9-10.7-9.9
	c-6.3-2-3.2-9.6-3.2-9.6L189.2,244.9z"/>
<path id="XMLID_210_" class="st4" d="M188.6,245.5c1.5,1.7,2.7,4,2.8,6.3c0.2,3.8-4,4-6.4,5.4c-5.3,2.9,1.4,8.8,3.6,11.4
	c0.6,0.7,1.9,0,1.5-0.9c-0.4-1-0.7-2.1-0.9-3.2c-0.4-1.6-0.8-2.1,0.3-2.7c2.3-1.2,4.5-2.5,6.5-4.2c1.5-1.3,0.6-1.9,2.6-1.5
	c3.6,0.8,5.5,5,6.6,8c0.4,1.1,2,0.7,1.8-0.5c-0.4-2-0.6-4-0.5-6c0-0.8,0.4-4.3,1.6-4.3c1.1,0,2.2,0,3.3-0.1c2.5-0.2,5.7-0.4,7.7-2.1
	c0.5-0.4,1.4,5.3,1.5,6c0.1,1.2,1.8,1.2,1.8,0c0.2-3.2,1.8-13.9-4.6-12.1c-2.1,0.6-4.1,1.9-6.4,1.4c-4.2-0.8-4.2-5.5-2.9-8.6
	c0.3-0.6-0.5-1.4-1.1-1.1c-6.1,2.4-12.2,4.7-18.3,7.1c-1.1,0.4-0.6,2.2,0.5,1.8c6.1-2.4,12.2-4.7,18.3-7.1c-0.4-0.4-0.8-0.8-1.1-1.1
	c-2,4.9-0.1,11.2,6,11c2.2-0.1,4-1.3,6.1-1.7c3-0.7,1.8,9.2,1.7,10.5h1.8c-0.2-2.3-0.2-5.6-1.7-7.5c-0.6-0.8-1.5-0.9-2.3-0.3
	c-2,1.5-4.5,1.8-7,2c-3.2,0.3-5.1-0.2-6.3,3.5c-1,2.8-0.5,6.4,0.2,9.3c0.6-0.2,1.2-0.3,1.8-0.5c-1.3-3.5-3.1-7.1-6.5-8.8
	c-1-0.5-3-1.2-4.1-0.6c-0.5,0.3-0.9,1.1-1.2,1.5c-0.8,0.8-1.7,1.5-2.7,2.1c-1.5,1-3,1.8-4.6,2.6c-2.1,1-0.2,6.1,0.4,7.6
	c0.5-0.3,1-0.6,1.5-0.9c-1.6-1.9-4.2-4.1-5-6.5c-0.7-2.1,4.9-3.4,6.1-4.3c4.2-3.2,1.7-9-1.1-12.2
	C189.1,243.3,187.8,244.6,188.6,245.5"/>
<path id="XMLID_209_" class="st4" d="M244.9,179.3c41.8-47.9,19.1-95.6,19.1-95.6c0.2,10.8-3.3,18.9-3.3,18.9
	C260.5,59.5,236.9,43,236.9,43c4.4,10.8,3.1,29.2,3.1,29.2C231.7,40.6,193.4,29,193.4,29s32.1,21.3,27.6,56.4c0,0-3.4,27-34.3,27
	h-45.1c-30.9,0-34.3-27-34.3-27C102.8,50.3,134.9,29,134.9,29S96.7,40.6,88.3,72.3c0,0-1.3-18.5,3.1-29.2c0,0-23.5,16.5-23.7,59.6
	c0,0-3.5-8.1-3.3-18.9c0,0-22.6,47.7,19.1,95.6c0,0-8.1-4.4-15.2-12.3c0,0,18.2,36.3,58.5,51.4l-10.3,19.8l26.4,9.5l4.1-21.2
	c0,0,0.5-1.8,1.8-1.6c1.3,0.2,1.1,2.2,1.1,2.2l-3.1,17l6.4,0.4l1.2-17.9c0,0,0.1-1.4,1.8-1.2c1.6,0.2,1.2,1.6,1.2,1.6l-1.1,18.1
	l6.4-0.1l-0.3-18.4c0,0,0.2-1.1,1.9-1.2c1.7,0.1,1.9,1.2,1.9,1.2l-0.3,18.4l6.4,0.1l-1.1-18.1c0,0-0.4-1.4,1.2-1.6s1.8,1.2,1.8,1.2
	l1.2,17.9l6.4-0.4l-3.1-17c0,0-0.1-2.2,1.2-2.5c1.3-0.2,1.7,1.8,1.7,1.8l4.1,21.2l26.4-9.5l-10.3-19.8C241.8,203.3,260,167,260,167
	C253,174.9,244.9,179.3,244.9,179.3"/>
<path id="XMLID_208_" class="st3" d="M245.7,179.4c16-18.5,25.9-41.4,25.5-66.1c-0.2-10.2-1.8-21.4-6.2-30.7
	c-0.4-0.9-1.7-0.4-1.7,0.5c0,6.1-0.9,13-3.2,18.4c0.6,0.2,1.1,0.3,1.7,0.5c-0.2-16.2-3.5-32.5-12.1-46.4c-3.1-5.1-7.2-10.5-12.1-14
	c-0.6-0.5-1.6,0.3-1.4,1c3.5,9,3.7,19.5,3,29c0.6-0.1,1.2-0.2,1.8-0.2c-5.9-21.5-26.5-37.6-47.2-43.9c-1-0.3-1.6,1.1-0.7,1.7
	c16.5,11,28.1,31,27.5,50.8c-0.2,6-2.1,12.3-5.8,17.8c-6.5,9.4-17.5,13.1-28.5,13.1h-25.5c-7.5,0-15.2,0.4-22.7-0.1
	c-11.7-0.8-21.7-7.1-26.8-17.6c-3.7-7.6-3.8-15.3-2.5-23.5c2.6-15.9,13.5-31.5,26.9-40.5c0.8-0.6,0.3-2-0.7-1.7
	c-20.8,6.4-41.4,22.4-47.2,43.9c0.6,0.1,1.2,0.2,1.8,0.2c-0.7-9.5-0.4-20,3-29c0.3-0.7-0.7-1.5-1.4-1c-5,3.5-8.9,8.9-12.1,14
	C70.4,69.4,67.1,85.9,67,102c0.6-0.2,1.1-0.3,1.7-0.5c-2.3-5.4-3.2-12.3-3.2-18.4c0-0.9-1.3-1.3-1.7-0.5c-4.4,9.4-6,20.4-6.2,30.7
	c-0.6,24.6,9.6,47.6,25.5,66.1c0.4-0.5,0.7-1,1.1-1.5c-5.6-3.1-10.7-7.4-15-12.2c-0.7-0.8-1.9,0.2-1.5,1.1
	c3.7,7.3,8.9,14.1,14.3,20.2c12.1,13.9,27.4,25,44.7,31.6c-0.2-0.5-0.4-0.9-0.6-1.4l-10.3,19.8c-0.3,0.6,0,1.1,0.6,1.4
	c8.8,3.2,17.6,6.3,26.4,9.5c0.4,0.2,1-0.2,1.1-0.6c1.3-6.9,2.7-14.3,4.1-21.2c0.2-1.1,1.4-0.9,1.2,0.2c-0.4,1.9-0.8,4.7-1.2,6.6
	c-0.6,3.5-1.3,6.9-1.9,10.4c-0.1,0.6,0.3,1.1,0.9,1.2c2.1,0.1,4.3,0.3,6.4,0.4c0.5,0,0.9-0.4,0.9-0.9l0.3-9.3c0.1-2,0.3-5.4,0.5-7.4
	c0.1-0.7,0.3-1.9,0.9-1.8c0.8,0.1,0.7,1.2,0.7,1.9c0-0.3-0.3,4.8-0.5,7.6c-0.2,3.2-0.5,6.5-0.7,9.7c0,0.5,0.4,0.9,0.9,0.9
	c2.1,0,4.3-0.1,6.4-0.1c0.5,0,0.9-0.4,0.9-0.9c-0.1-6.1-0.4-11.3-0.4-17.4c0-2.1,1.9-2.1,1.9,0.1c0,0.6,0,0.9,0,1.6
	c0,2.2-0.1,4.4-0.1,6.6c-0.1,3.1-0.1,6.1-0.2,9.2c0,0.5,0.4,0.9,0.9,0.9l6.4,0.1c0.5,0,1-0.4,0.9-0.9c-0.4-6-0.8-12.1-1.1-18.1
	c-0.1-1.1,1.1-1.2,1.1,0c0,0.5,0.1,0.9,0.1,1.4c0.1,2.1,0.3,4.1,0.4,6.2c0.2,3.3,0.4,6.6,0.7,9.9c0,0.5,0.4,1,0.9,0.9
	c2.1-0.1,4.2-0.3,6.4-0.4c0.6,0,1-0.6,0.9-1.2c-0.6-3.3-1.2-6.5-1.8-9.8l-1.4-7.5c-0.2-1,0.4-1.1,0.4-1.1c0.1-0.1,0.7,0,0.8,0.8
	c1.3,6.9,2.8,14.6,4.1,21.5c0.1,0.5,0.7,0.8,1.1,0.6c8.8-3.1,17.6-6.3,26.4-9.5c0.6-0.2,0.8-0.8,0.6-1.4
	c-3.4-6.6-6.9-13.2-10.3-19.8c-0.2,0.5-0.4,0.9-0.6,1.4c17.1-6.6,32.1-17.4,44.3-31.1c5.6-6.3,11-13.2,14.8-20.7
	c0.5-0.9-0.7-1.9-1.5-1.1c-4.3,4.7-9.3,9.1-15,12.2c-1,0.6-0.1,2.2,0.9,1.6c5.8-3.2,11-7.6,15.4-12.5c-0.5-0.4-1-0.7-1.5-1.1
	c-3.5,7-8.5,13.4-13.5,19.3c-12,13.9-27.2,25.1-44.4,31.7c-0.6,0.2-0.8,0.8-0.6,1.4c3.4,6.6,6.9,13.2,10.3,19.8
	c0.2-0.5,0.4-0.9,0.6-1.4c-8.8,3.2-17.6,6.3-26.4,9.5c0.4,0.2,0.8,0.4,1.1,0.6c-0.8-4.2-1.6-8.3-2.4-12.5c-0.5-2.4-1-4.5-1.5-6.9
	c-0.2-1-0.7-3-1.2-3.6c-1.2-1.2-3-0.7-3.4,0.8c-0.3,1-0.1,2.3,0.1,3.5c0.6,4.1,1.9,11.1,2.7,15.7c0.3-0.4,0.6-0.8,0.9-1.2
	c-2.1,0.1-4.3,0.3-6.4,0.4l0.9,0.9c-0.3-4.2-0.9-13.5-1.3-17.6c-0.2-2.6-1.9-2.6-2.5-2.6c-1,0.1-2.1,0.8-2,2.6
	c0.1,4.3,0.7,13.9,0.9,18.2l0.9-0.9l-6.4-0.1l0.9,0.9c0.1-4.1,0.1-13.4,0-17.5c0-1.7-0.8-3.2-2.4-3.2c-1.9,0-2.5,1.5-2.5,3.2
	c-0.1,4.3-0.1,13.1,0,17.4l0.9-0.9c-2.1,0-4.2,0.1-6.4,0.1l0.9,0.9l0.9-18.2c0-2.5-1.4-2.9-2-2.9c-1.2,0-2.4,0.5-2.5,2.6
	c-0.4,4.4-1,13.5-1.3,17.9l0.9-0.9c-2.1-0.1-4.2-0.3-6.4-0.4c0.3,0.4,0.6,0.8,0.9,1.2c0.8-4.5,1.2-6.9,2-11.3c0.2-1.3,0.8-4.3,1-5.7
	c0.2-1.9-0.4-2.8-1.7-3.1c-0.2,0-2.3-0.3-2.9,2.2c-0.9,4.4-3.3,16.6-4.1,21c0.4-0.2,0.8-0.4,1.1-0.6c-8.8-3.2-17.6-6.3-26.4-9.5
	c0.2,0.5,0.4,0.9,0.6,1.4l10.3-19.8c0.3-0.6,0-1.1-0.6-1.4c-17.1-6.5-31.9-17.5-43.9-31.2c-5.3-6-10.4-12.7-14-19.8l-1.4,1.1
	c4.4,4.8,9.6,9.3,15.4,12.5c1,0.5,1.8-0.7,1.1-1.5c-15.8-18.4-25.5-41-24.9-65.5c0.2-9.6,1.8-20.2,6-29c-0.6-0.2-1.1-0.3-1.7-0.5
	c0,6.5,0.9,13.3,3.4,19.4c0.4,0.9,1.7,0.4,1.7-0.5c0.2-15.9,3.4-31.8,11.8-45.5c3-4.8,6.8-10,11.5-13.3c-0.5-0.3-0.9-0.7-1.4-1
	c-3.5,9.1-3.8,19.8-3.1,29.5c0.1,1,1.5,1.3,1.8,0.2c5.7-20.9,25.8-36.5,46-42.7c-0.2-0.6-0.5-1.1-0.7-1.7
	c-15,10-26.2,27.4-28.2,45.2c-1.9,17.4,6.8,34,24.6,38.7c7.7,2,16.2,1.2,24.1,1.2H184c9.3,0,18.5-1.2,26-7.2
	c5.9-4.7,10-11.4,11.7-18.7c5.3-22.2-9.5-47.2-27.7-59.3c-0.2,0.6-0.5,1.1-0.7,1.7c20.2,6.2,40.2,21.8,46,42.7
	c0.3,1,1.7,0.8,1.8-0.2c0.7-9.6,0.4-20.4-3.1-29.5c-0.5,0.3-0.9,0.7-1.4,1c4.6,3.3,8.4,8.5,11.5,13.3c8.5,13.5,11.7,29.7,11.8,45.5
	c0,0.8,1.3,1.4,1.7,0.5c2.6-6,3.5-12.9,3.4-19.4c-0.6,0.2-1.1,0.3-1.7,0.5c4.2,8.8,5.6,19.4,6,29c0.8,24.4-9.2,47.2-24.9,65.5
	C243.6,179,244.9,180.3,245.7,179.4"/>
<path id="XMLID_207_" class="st3" d="M82.8,179.1c6.4,5.7,13.4,10.8,20.6,15.5c14.8,9.8,31,17.8,48.2,22c1.2,0.3,1.6-1.5,0.5-1.8
	c-17.1-4.2-33.1-12.2-47.8-21.8c-7-4.6-13.9-9.6-20.2-15.2C83.2,177,81.9,178.3,82.8,179.1"/>
<path id="XMLID_206_" class="st3" d="M87.6,71.4c-1.1,8.8,0.4,18.3,2.7,26.8c5.2,19.6,17.8,36,34.4,47.4c1,0.7,1.9-0.9,0.9-1.6
	c-16.7-11.5-28.8-27.9-33.8-47.6c-2.1-8-3.3-16.8-2.3-25.1C89.6,70.2,87.8,70.2,87.6,71.4"/>
<path id="XMLID_205_" class="st3" d="M66.8,101.4c1.8,10.5,6.7,20.9,12.1,30c13.3,22.5,34.1,39.3,57.9,49.6c1.1,0.5,2-1.1,0.9-1.6
	c-23.6-10.2-44-26.7-57.3-48.9c-5.3-8.9-10.2-19.2-11.9-29.5C68.4,99.8,66.6,100.3,66.8,101.4"/>
<path id="XMLID_204_" class="st3" d="M244.8,177.8c-6.2,5.6-13.2,10.6-20.2,15.2c-14.6,9.7-30.7,17.7-47.8,21.8
	c-1.2,0.3-0.7,2.1,0.5,1.8c17.3-4.2,33.4-12.3,48.2-22c7.1-4.7,14.2-9.8,20.6-15.5C247,178.3,245.6,177,244.8,177.8"/>
<path id="XMLID_203_" class="st3" d="M239.3,71.6c1,8.3-0.3,17.1-2.3,25.1c-4.9,19.6-17.3,36.2-33.8,47.6c-1,0.7-0.1,2.3,0.9,1.6
	c16.7-11.5,29-27.8,34.4-47.4c2.3-8.5,3.7-18,2.7-26.8C241,70.4,239.2,70.4,239.3,71.6"/>
<path id="XMLID_202_" class="st3" d="M260,101.8c-1.7,10.2-6.4,20.2-11.6,29c-13.1,22.5-33.9,39.2-57.6,49.4
	c-1.1,0.5-0.1,2.1,0.9,1.6c23.7-10.2,44.2-26.8,57.6-49c5.5-9.2,10.6-19.8,12.4-30.5C262,101.1,260.2,100.6,260,101.8"/>
<polygon id="XMLID_201_" class="st5" points="136.7,28 149,23.7 149,32.4 "/>
<polygon id="XMLID_200_" class="st5" points="164.6,0 168.8,12.3 160.2,12.3 "/>
<polygon id="XMLID_199_" class="st5" points="164.6,55.9 160.3,43.6 169,43.6 "/>
<polygon id="XMLID_198_" class="st6" points="146.6,17.6 153.1,10.6 155.6,14.6 150.5,19.8 "/>
<polygon id="XMLID_197_" class="st6" points="153.6,45.7 146.6,39.2 150.5,36.7 155.8,41.7 "/>
<polygon id="XMLID_196_" class="st5" points="192.3,28.3 180,32.6 180,23.9 "/>
<polygon id="XMLID_195_" class="st6" points="182.4,38.6 175.9,45.7 173.4,41.7 178.5,36.4 "/>
<polygon id="XMLID_194_" class="st6" points="175.4,10.6 182.4,17.1 178.5,19.6 173.2,14.6 "/>
<path id="XMLID_193_" class="st7" d="M180.8,28.1c0,9-7.3,16.3-16.3,16.3c-9,0-16.3-7.3-16.3-16.3c0-9,7.3-16.3,16.3-16.3
	C173.5,11.8,180.8,19.1,180.8,28.1"/>
<polygon id="XMLID_192_" class="st8" points="142.6,111.9 151.4,142.6 157.8,118.6 162.8,162.3 165,162.3 170.9,118.5 177.7,142.3 
	186.4,110.7 173.5,109.3 161.8,108.1 149.2,109.4 143,111.1 "/>
<path id="XMLID_191_" class="st3" d="M191.1,112.2c-5.2-2.3-5.9-7.8-5.9-7.8s-3-16.6-6.6-22.4c-3.6-5.8-9.5-10.4-19.9-10.4
	c-10.4,0-13.5,4.1-13.5,4.1c-2.8-0.1-3,2.6-3,2.6c-11.7,3-10,11.9-10,11.9c7.3-7.3,20.4-3.8,20.4,8s-16.5,14.2-16.5,14.2l9.1,1
	l6.1,21.2l6.1-22.2l2.4,0.1l4.5,41l5.7-40.9h2.2l5.8,22.3l6.1-22.1l5.1-0.1C190.2,112.6,190,112.3,191.1,112.2"/>
<path id="XMLID_190_" class="st4" d="M155.9,77.6c0,0.9-1.8,1.7-4,1.7c-2.2,0-4-0.8-4-1.7c0-0.9,1.8-1.7,4-1.7
	C154.1,75.9,155.9,76.7,155.9,77.6"/>
<g id="XMLID_91_">
	<path id="XMLID_144_" class="st8" d="M95.3,265.3c-0.3,0.6-0.7,1.1-1,1.5c-0.3,0.3-0.7,0.5-1.2,0.6c-0.4,0.1-1,0-1.7-0.1
		c-0.7-0.2-1.3-0.4-2-0.7c-1.2-0.6-2.1-1.3-2.5-2.1c-0.5-0.8-0.5-1.5-0.1-2.3c0.3-0.7,0.7-1.2,1.2-1.6c0.5-0.5,1.4-1,2.6-1.6
		l0.3,0.5c-0.9,0.5-1.5,0.9-1.9,1.2c-0.3,0.3-0.6,0.6-0.8,1c-0.3,0.5-0.2,1,0.2,1.6c0.4,0.6,1.1,1.1,2,1.6c0.9,0.5,1.8,0.7,2.5,0.7
		c0.8,0,1.3-0.2,1.5-0.7c0.1-0.3,0.2-0.6,0.3-0.9c0-0.3,0-0.9,0-1.7l1.6-1.6c0.1,0.8,0.1,1.3,0,1.6c-0.1,0.5-0.2,1-0.6,1.7
		L95.3,265.3z M95.7,258.5l-1.7,1.1l-1.3-1.8l1.7-1.1L95.7,258.5z"/>
	<path id="XMLID_142_" class="st8" d="M98.8,267.3l-1.1-0.5c-0.6-0.3-0.9-0.7-1-1.3c-0.1-0.6,0.2-1.6,0.7-2.8l1-2
		c0.2-0.5,0.3-0.9,0.3-1.2c0-0.2-0.1-0.4-0.2-0.8l1.7-1.4c0.1,0.5,0.2,1,0.1,1.4c-0.1,0.5-0.3,1.1-0.6,1.8l-0.7,1.4
		c-0.5,1-0.7,1.7-0.8,2.2c0,0.4,0.1,0.6,0.3,0.7l1.1,0.5L98.8,267.3z"/>
	<path id="XMLID_139_" class="st8" d="M103.1,269.2l-4.9-2.1l0.9-2l4.1,1.8c0.1-0.4,0.1-0.7,0.1-1c0-0.2-0.1-0.5-0.3-0.9l1.4-1.4
		c0.2,0.6,0.3,1.1,0.2,1.6c-0.1,0.5-0.3,1.2-0.7,2.1L103.1,269.2z M106.4,261.4l-1.5,1.1l-0.9-1.1l-1.1,0.9l-1.1-1.4l1.4-1l0.9,1
		l1.2-0.9L106.4,261.4z"/>
	<path id="XMLID_137_" class="st8" d="M112.9,273.1c-0.6-0.2-1.1-0.5-1.4-0.7c-0.4-0.2-0.7-0.5-1-0.8c-0.4,0.1-0.7,0.1-1,0.1
		c-0.3,0-0.6-0.1-1.1-0.3l-1.3-0.5c-0.4-0.1-0.6-0.3-0.7-0.6c-0.1-0.3-0.2-0.6-0.2-1.1c-0.5,0.3-0.9,0.5-1.3,0.5
		c-0.4,0-0.8,0-1.2-0.2l-1.1-0.4l0.8-2l1.1,0.4c0.6,0.2,1.1,0.3,1.6,0.1c0.6-0.2,1.1-0.7,1.4-1.4l0.5,0.3c-0.1,0.2-0.2,0.3-0.2,0.5
		c-0.1,0.2-0.2,0.4-0.3,0.7c-0.1,0.3-0.1,0.5,0,0.7c0.1,0.2,0.3,0.4,0.5,0.5l1,0.4c0.6,0.3,1.1,0.3,1.5,0.3c0.4-0.1,0.7-0.4,0.9-0.9
		c0-0.1,0.1-0.2,0.2-0.3c0.1,0,0.2-0.1,0.4-0.1l0.4-0.1c0,0.1-0.1,0.2-0.1,0.4c-0.1,0.2-0.1,0.3-0.1,0.3c-0.1,0.3-0.3,0.6-0.5,1
		c0.2,0.2,0.4,0.3,0.6,0.5c0.2,0.2,0.5,0.3,0.7,0.4c0.1-0.2,0.1-0.4,0.1-0.7c0-0.3,0-0.5,0-0.6c0-0.1,0.1-0.2,0.2-0.3
		c0,0,0.1-0.1,0.3-0.2l1-0.6c0,0.4,0,0.7,0,1c0,0.3-0.1,0.6-0.3,1L112.9,273.1z"/>
	<path id="XMLID_135_" class="st8" d="M118.5,274.9l-3.7-1.2c-0.4-0.1-0.6-0.3-0.7-0.5c-0.2-0.2-0.2-0.6-0.1-0.9
		c0.1-0.2,0.2-0.5,0.3-0.7c0.1-0.2,0.2-0.5,0.4-0.7l0.3,0.1c0,0.2,0,0.3,0.2,0.5c0.1,0.1,0.3,0.2,0.5,0.3l2.8,0.9
		c0.1-0.8,0.1-1.4-0.1-2c-0.1-0.4-0.4-0.9-0.7-1.3l1.4-2.1c0.5,0.7,0.8,1.5,0.9,2.4c0,0.8-0.1,1.8-0.5,2.9L118.5,274.9z"/>
	<path id="XMLID_133_" class="st8" d="M125.6,277.2c-0.1,0.3-0.4,0.7-0.9,1.1c-0.5,0.4-1.1,0.7-1.7,0.9c-0.7,0.2-1.2,0.3-1.6,0.2
		c-0.5-0.1-1-0.4-1.4-0.8c-0.4-0.4-1-1-1.9-2l0.5-0.4c0.4,0.4,0.7,0.8,1,1c0.3,0.2,0.6,0.3,0.9,0.4c0.4,0.1,0.8,0.1,1.2,0
		c0.4-0.1,1.1-0.3,1.9-0.6c1.1-0.5,1.7-0.9,1.9-1.3c0.1-0.2,0.1-0.5,0-0.9c-0.1-0.4-0.2-0.8-0.4-1.1l1.1-1.9c0.3,0.5,0.4,1,0.5,1.5
		c0.1,0.5,0,1.1-0.2,1.7L125.6,277.2z"/>
	<path id="XMLID_130_" class="st8" d="M133.3,278.4c-0.2,0.9-0.8,1.6-1.9,2.3c-1,0.7-1.9,0.9-2.7,0.7c-0.5-0.1-0.9-0.4-1.4-0.8
		c-0.5-0.4-1.2-1.1-2.1-2.2l0.5-0.4c0.5,0.5,0.9,0.9,1.3,1.1c0.3,0.2,0.6,0.3,1,0.4c0.5,0.1,1.1,0.1,1.7,0c0.7-0.2,1.5-0.5,2.3-1.1
		c-0.2,0-0.4-0.1-0.6-0.1c-0.5-0.1-0.9-0.4-1.2-0.8c-0.2-0.4-0.3-0.9-0.2-1.5c0.2-0.8,0.6-1.5,1.1-2.1c0.6-0.7,1.2-0.9,1.7-0.8
		c0.4,0.1,0.7,0.5,0.9,1.1c0.2,0.6,0.2,1.3,0,2.1L133.3,278.4z M132.7,276.6c0-0.9-0.2-1.3-0.6-1.5c-0.2,0-0.3,0-0.5,0.1
		c-0.1,0.1-0.2,0.2-0.3,0.4c0,0.2,0,0.4,0.2,0.5c0.2,0.2,0.5,0.3,0.8,0.4L132.7,276.6z"/>
	<path id="XMLID_128_" class="st8" d="M139.3,280.2l-6.8-1.4l0.4-2.1l5.4,1.1c-0.2-0.3-0.3-0.5-0.5-0.8c-0.1-0.2-0.3-0.4-0.6-0.7
		c-0.3-0.3-0.5-0.6-0.8-0.9l-0.3,0.2c-0.4-0.6-0.6-0.9-0.7-1c-0.2-0.4-0.3-0.7-0.2-1.1c0.1-0.5,0.2-0.9,0.3-1.1
		c0.2-0.3,0.5-0.5,0.9-0.7c0.4-0.1,0.7-0.3,1.2-0.4c0.3-0.1,0.7-0.2,1.2-0.2c0.2,0,0.7-0.1,1.5-0.2l-0.4,1.8c0,0-0.3,0-0.7,0.1
		c-0.6,0.1-1,0.1-1.4,0.2c-0.5,0.1-0.8,0.2-0.8,0.3c0,0,0.1,0.3,0.5,0.7c0.4,0.6,0.8,1.1,1.1,1.6c0.5,0.8,0.8,1.6,1.1,2.3
		L139.3,280.2z"/>
	<path id="XMLID_126_" class="st8" d="M153.5,282.2l-0.7-0.1c-0.2,0-0.4,0-0.5,0c-0.1,0-0.2,0.1-0.2,0.1c0,0,0.1,0.1,0.4,0.2
		c0.3,0.1,0.4,0.3,0.4,0.5c0,0.3-0.1,0.6-0.3,1s-0.3,0.7-0.5,1c-0.2,0.2-0.5,0.5-1.1,0.7c-0.7,0.3-1.4,0.5-2.2,0.6
		c-0.9,0.2-1.8,0.2-2.6,0.1c-0.9-0.1-1.6-0.4-2-0.8s-0.6-1-0.5-1.8c0.1-0.8,0.3-1.5,0.6-2.1c0.3-0.7,1-1.6,1.9-2.7l0.4,0.4
		c-0.6,0.8-1.1,1.4-1.3,1.9c-0.3,0.5-0.4,0.9-0.5,1.4c-0.1,0.5,0.1,0.9,0.4,1.2c0.3,0.3,0.7,0.5,1.3,0.6c0.7,0.1,1.5,0.1,2.3,0
		c0.8-0.1,1.4-0.2,2-0.4c0.6-0.2,0.9-0.4,0.9-0.5c0-0.1-0.1-0.1-0.5-0.2c-0.3,0-0.6-0.1-0.8-0.1c-0.6-0.1-1-0.1-1.2-0.2
		c-0.2-0.1-0.2-0.2-0.2-0.3c0-0.3,0.1-0.6,0.3-0.9c0.1-0.3,0.3-0.5,0.5-0.7c0.4-0.4,0.9-0.7,1.5-0.9c0.6-0.3,1.1-0.4,1.6-0.3
		l0.9,0.1L153.5,282.2z"/>
	<path id="XMLID_123_" class="st8" d="M160.6,282.6c-0.6,0-1.3-0.2-2.1-0.5c-0.7-0.2-1.3-0.5-1.8-0.8c-0.4,0.4-0.8,0.7-1.3,0.8
		c-0.2,0.1-0.6,0.1-1,0l-1.7-0.1l0.1-2.1l1.7,0.1c0.5,0,0.9,0,1.2-0.1c0.4-0.1,0.7-0.4,0.9-0.7c0.4-0.6,0.8-1.2,1.4-1.6
		c0.5-0.4,0.9-0.5,1.2-0.5c0.3,0,0.6,0.4,1,1.3c0.4,0.9,0.6,1.7,0.5,2.4L160.6,282.6z M159.2,280.1c0-0.1-0.1-0.3-0.3-0.6
		c-0.3-0.3-0.5-0.5-0.7-0.5c-0.2,0-0.4,0.2-0.6,0.7c0.3,0.1,0.5,0.2,0.7,0.3c0.4,0.2,0.7,0.3,0.8,0.3
		C159.1,280.2,159.2,280.2,159.2,280.1z"/>
	<path id="XMLID_119_" class="st8" d="M165.3,282.7l-5.3-0.2l0.1-2.1l4.5,0.1c-0.1-0.4-0.2-0.7-0.3-0.9c-0.1-0.1-0.3-0.4-0.6-0.7
		l0.7-1.9c0.4,0.5,0.7,0.9,0.8,1.4c0.1,0.5,0.2,1.2,0.2,2.2L165.3,282.7z M165.1,284.1l-1,1.6l-1.2-0.7l-0.7,1.2l-1.6-0.9l0.9-1.5
		l1.2,0.6l0.8-1.3L165.1,284.1z M165.5,274.3l-1.2,1.8l-0.8,0l-1.1-1.8l1,0l0.5,1l0.6-0.9L165.5,274.3z"/>
	<path id="XMLID_117_" class="st8" d="M172.7,282.9c0,0.3-0.2,0.7-0.6,1.3c-0.4,0.5-0.9,1-1.4,1.4c-0.6,0.4-1.1,0.7-1.5,0.7
		c-0.5,0-1-0.1-1.6-0.4c-0.5-0.2-1.3-0.7-2.4-1.3l0.4-0.5c0.5,0.3,0.9,0.5,1.2,0.6c0.3,0.1,0.7,0.2,1,0.2c0.4,0,0.8-0.1,1.2-0.3
		c0.4-0.2,0.9-0.6,1.6-1.2c0.9-0.8,1.4-1.4,1.4-1.8c0-0.2-0.1-0.5-0.3-0.8c-0.2-0.4-0.5-0.7-0.8-1l0.5-2.1c0.4,0.4,0.7,0.8,0.9,1.3
		c0.2,0.5,0.3,1,0.3,1.6L172.7,282.9z"/>
	<path id="XMLID_114_" class="st8" d="M179.9,282.3l-1.1,0.1c-0.2,0-0.4,0-0.6-0.1c-0.3-0.1-0.6-0.4-0.9-0.8
		c-0.3-0.5-0.6-1.3-0.7-2.2c-0.4,0.5-0.6,0.8-0.8,1c-0.3,0.3-0.6,0.4-0.8,0.4c-0.1,0-0.2,0-0.4,0l-1-0.1c-0.4-0.1-0.7-0.1-0.8-0.1
		c-0.1,0-0.2-0.1-0.2-0.2c0-0.1,0.2-0.6,0.5-1.4c0.4-0.8,0.6-1.3,0.8-1.4c0.1-0.1,0.4-0.3,0.7-0.6c0.2-0.1,0.5-0.3,0.9-0.6l0.4-0.3
		c0-0.1,0-0.1-0.1-0.2c0-0.1,0-0.1,0-0.2c0-0.2,0-0.5,0.1-0.8c0.1-0.3,0.2-0.7,0.5-1.2l1.1,4.9c0.2,0.8,0.4,1.3,0.6,1.5
		c0.1,0.2,0.3,0.2,0.6,0.2l1.1-0.1L179.9,282.3z M176.3,278l-0.2-0.9c-0.2,0.1-0.3,0.2-0.4,0.2c-0.3,0.2-0.5,0.3-0.7,0.5
		c-0.1,0.1-0.2,0.2-0.3,0.3c-0.1,0.1-0.2,0.2-0.2,0.3c0,0.1,0.1,0.1,0.3,0.2c0.2,0,0.4,0,0.6,0c0.1,0,0.3,0,0.4-0.1
		S176.1,278.2,176.3,278z"/>
	<path id="XMLID_110_" class="st8" d="M186.5,279.9c0,0.4,0,0.8-0.1,1.3c-0.1,0.6-0.3,0.9-0.6,0.9c-0.2,0-0.6,0-1.2-0.2
		c-0.7-0.2-1.4-0.4-2.1-0.7c-0.3,0.3-0.8,0.6-1.3,0.8c-0.4,0.2-0.8,0.3-1.3,0.3l-0.8,0.1l-0.2-2.1l0.8-0.1c0.2,0,0.3-0.1,0.5-0.1
		c0.2-0.1,0.3-0.1,0.4-0.2l0-0.3c-0.1-0.6,0-1.2,0.1-1.7c0.2-0.6,0.4-1,0.8-1.3l-0.4-0.2c0-0.4,0.1-0.8,0.1-1c0-0.2,0.1-0.6,0.2-1.1
		c0.9,0.5,1.8,1,2.5,1.8c0.7,0.7,1.3,1.3,1.8,2C186.2,278.7,186.4,279.3,186.5,279.9z M183,278.4c0-0.3-0.1-0.5-0.2-0.6
		c-0.1-0.1-0.2-0.2-0.4-0.2c-0.3,0-0.5,0.1-0.6,0.3c-0.1,0.2-0.2,0.3-0.2,0.5c0,0.2,0.3,0.4,0.8,0.6c0.1-0.1,0.2-0.1,0.3-0.2
		C182.9,278.7,183,278.5,183,278.4z M185.5,279.6c0-0.2-0.2-0.4-0.4-0.7c-0.3-0.3-0.6-0.6-1-0.8c0,0.3,0,0.5-0.1,0.6
		c0,0.1-0.1,0.4-0.3,0.7c0.8,0.3,1.3,0.4,1.6,0.4C185.4,279.8,185.5,279.7,185.5,279.6z"/>
	<path id="XMLID_108_" class="st8" d="M202,278.9l-0.7,0.1c-0.2,0-0.4,0.1-0.5,0.1c-0.1,0.1-0.2,0.1-0.2,0.2c0,0,0.2,0.1,0.4,0.1
		c0.3,0,0.5,0.2,0.5,0.4c0.1,0.3,0.1,0.6,0.1,1.1c0,0.4-0.1,0.8-0.2,1.2c-0.1,0.3-0.4,0.6-0.9,1.1c-0.5,0.5-1.2,0.9-1.9,1.3
		c-0.8,0.4-1.6,0.7-2.4,0.9c-0.9,0.2-1.6,0.1-2.2-0.2c-0.5-0.3-0.9-0.8-1-1.6c-0.2-0.8-0.2-1.5-0.1-2.2c0.1-0.8,0.5-1.8,1-3.1
		l0.5,0.2c-0.4,0.9-0.6,1.7-0.7,2.2c-0.1,0.5-0.1,1,0,1.5c0.1,0.5,0.3,0.8,0.7,1c0.4,0.2,0.9,0.3,1.4,0.1c0.7-0.1,1.4-0.4,2.2-0.8
		c0.7-0.3,1.3-0.7,1.8-1c0.5-0.4,0.7-0.6,0.7-0.8c0-0.1-0.2-0.1-0.5,0c-0.3,0.1-0.6,0.1-0.8,0.2c-0.6,0.1-1,0.2-1.2,0.2
		c-0.2,0-0.3-0.1-0.3-0.2c-0.1-0.3-0.1-0.6,0-0.9c0-0.3,0.1-0.6,0.2-0.8c0.3-0.5,0.7-0.9,1.1-1.3c0.5-0.4,1-0.7,1.4-0.8l0.9-0.2
		L202,278.9z"/>
	<path id="XMLID_105_" class="st8" d="M204.3,269.5l-0.5,1.8l-1.3-0.3l-0.4,1.4l-1.7-0.4l0.5-1.7l1.4,0.3l0.4-1.4L204.3,269.5z
		 M206.5,277.7l-5.2,1.3l-0.5-2.1l4.4-1.1c-0.1-0.3-0.3-0.6-0.5-0.8c-0.1-0.1-0.4-0.3-0.7-0.5l0.2-2c0.5,0.3,0.9,0.7,1.2,1.2
		c0.3,0.4,0.5,1.1,0.7,2.1L206.5,277.7z"/>
	<path id="XMLID_102_" class="st8" d="M213.4,275.8l-1.1,0.3c-0.2,0.1-0.4,0.1-0.6,0c-0.4-0.1-0.7-0.2-1-0.6c-0.4-0.5-0.8-1.1-1.2-2
		c-0.3,0.5-0.5,0.9-0.6,1.2c-0.2,0.3-0.4,0.5-0.6,0.6c-0.1,0-0.2,0.1-0.4,0.1l-1.1,0.1c-0.4,0-0.7,0.1-0.8,0.1
		c-0.1,0-0.2-0.1-0.2-0.1c0-0.1,0-0.6,0.2-1.5c0.2-0.8,0.3-1.4,0.4-1.6c0.1-0.2,0.3-0.4,0.6-0.7c0.2-0.2,0.4-0.4,0.7-0.8l0.4-0.4
		c0-0.1-0.1-0.1-0.1-0.2c0-0.1-0.1-0.1-0.1-0.2c-0.1-0.2-0.1-0.4-0.1-0.8s0.1-0.7,0.2-1.2l2.1,4.5c0.3,0.7,0.6,1.2,0.9,1.4
		c0.2,0.1,0.4,0.2,0.6,0.1l1.1-0.3L213.4,275.8z M209,272.4l-0.4-0.9c-0.2,0.1-0.3,0.2-0.4,0.3c-0.3,0.2-0.5,0.4-0.6,0.6
		c-0.1,0.1-0.2,0.3-0.2,0.4c-0.1,0.1-0.1,0.2-0.1,0.3c0,0.1,0.1,0.1,0.3,0.1c0.2,0,0.4,0,0.6-0.1c0.1,0,0.2-0.1,0.3-0.2
		C208.6,272.8,208.8,272.6,209,272.4z"/>
	<path id="XMLID_99_" class="st8" d="M220.2,273.5c-0.6,0.2-1.3,0.3-2.1,0.4c-0.7,0-1.4,0-2,0c-0.2,0.5-0.5,1-0.9,1.2
		c-0.2,0.1-0.5,0.3-0.9,0.4l-1.6,0.5l-0.7-2l1.6-0.5c0.5-0.2,0.9-0.3,1.1-0.5c0.3-0.3,0.5-0.6,0.5-1c0.1-0.7,0.3-1.4,0.7-2
		c0.3-0.5,0.6-0.8,0.9-0.9c0.3-0.1,0.7,0.2,1.4,0.8c0.7,0.7,1.2,1.3,1.4,2L220.2,273.5z M217.9,271.7c0-0.1-0.2-0.3-0.5-0.5
		c-0.4-0.2-0.6-0.3-0.8-0.2c-0.2,0.1-0.3,0.4-0.3,0.9c0.3,0,0.6,0,0.7,0c0.5,0,0.8,0,0.8,0C217.9,271.8,217.9,271.8,217.9,271.7z"/>
	<path id="XMLID_96_" class="st8" d="M227.2,270.2c0.3,0.8,0.3,1.8-0.2,2.9c-0.5,1.1-1.1,1.8-1.8,2.1c-0.4,0.2-1,0.2-1.6,0.2
		c-0.6-0.1-1.6-0.3-3-0.6l0.2-0.6c0.7,0.1,1.3,0.2,1.7,0.2c0.3,0,0.7-0.1,1.1-0.2c0.5-0.2,1-0.5,1.4-1c0.5-0.5,0.9-1.3,1.3-2.2
		c-0.2,0.1-0.4,0.2-0.5,0.3c-0.5,0.2-1,0.2-1.4,0c-0.4-0.2-0.8-0.6-1-1.1c-0.3-0.7-0.4-1.5-0.3-2.3c0.1-0.9,0.4-1.4,0.9-1.6
		c0.4-0.2,0.9,0,1.4,0.4c0.5,0.4,0.9,1,1.2,1.8L227.2,270.2z M225.7,269.1c-0.5-0.7-0.9-1-1.4-0.8c-0.2,0.1-0.3,0.2-0.3,0.3
		c-0.1,0.2-0.1,0.3,0,0.5c0.1,0.2,0.2,0.3,0.5,0.3c0.3,0,0.6,0,0.9-0.1L225.7,269.1z"/>
	<path id="XMLID_94_" class="st8" d="M233.1,268.2l-6.3,2.7l-0.8-2l5.1-2.2c-0.3-0.1-0.6-0.3-0.9-0.3c-0.2-0.1-0.5-0.1-0.8-0.2
		c-0.4-0.1-0.8-0.2-1.2-0.3l-0.1,0.4c-0.6-0.2-1-0.4-1.2-0.4c-0.4-0.2-0.6-0.4-0.8-0.8c-0.2-0.5-0.3-0.8-0.3-1.1
		c0-0.3,0.1-0.7,0.3-1c0.2-0.3,0.5-0.6,0.7-0.9c0.2-0.2,0.5-0.5,0.9-0.9c0.2-0.2,0.5-0.5,1.1-1l0.7,1.7c0,0-0.2,0.2-0.6,0.5
		c-0.4,0.4-0.8,0.7-1,0.9c-0.4,0.4-0.5,0.6-0.5,0.7c0,0,0.3,0.2,0.8,0.3c0.7,0.2,1.3,0.5,1.8,0.7c0.8,0.4,1.6,0.8,2.2,1.3
		L233.1,268.2z"/>
	<path id="XMLID_92_" class="st8" d="M241.3,264.4l-8.8,4.2l-0.9-1.9l5.5-2.6c-0.9-0.3-1.7-0.4-2.3-0.5c-0.6,0-1.1,0.1-1.5,0.3
		c-0.1,0.1-0.3,0.1-0.4,0.2c-0.1,0.1-0.3,0.2-0.4,0.3c0-0.7,0.1-1.3,0.3-1.8c0.2-0.5,0.5-0.8,1-1c0.3-0.2,0.7-0.2,1.1-0.2
		c0.4,0,0.9,0.1,1.4,0.2c0.4,0.1,1.1,0.3,1.9,0.6c0.6,0.2,1,0.3,1.3,0.4c0.3,0,0.6,0,1.1-0.1L241.3,264.4z"/>
</g>
<g id="XMLID_43_">
	<path id="XMLID_88_" class="st8" d="M114.2,292.4c-0.3,0.7-0.5,1.2-0.8,1.6c-0.3,0.4-0.7,0.6-1.1,0.7c-0.4,0.1-1,0.2-1.7,0.1
		c-0.7-0.1-1.4-0.2-2-0.5c-1.3-0.5-2.2-1.1-2.7-1.8c-0.5-0.7-0.6-1.5-0.3-2.3c0.3-0.7,0.6-1.3,1-1.7c0.5-0.5,1.3-1.2,2.4-1.9
		l0.4,0.5c-0.8,0.6-1.4,1.1-1.7,1.4c-0.3,0.3-0.5,0.7-0.7,1.1c-0.2,0.5-0.1,1.1,0.4,1.6c0.5,0.6,1.2,1,2.2,1.4
		c1,0.4,1.8,0.5,2.6,0.4c0.8-0.1,1.3-0.4,1.5-0.9c0.1-0.3,0.2-0.6,0.2-1c0-0.3-0.1-0.9-0.2-1.7l1.5-1.7c0.1,0.8,0.2,1.3,0.2,1.6
		c0,0.5-0.1,1.1-0.4,1.7L114.2,292.4z M113.8,285.6l-1.6,1.3l-1.5-1.6l1.6-1.3L113.8,285.6z"/>
	<path id="XMLID_86_" class="st8" d="M117.6,293.9l-1.1-0.4c-0.6-0.2-1-0.6-1.1-1.2c-0.1-0.6,0-1.6,0.4-2.8l0.7-2.1
		c0.2-0.5,0.2-0.9,0.2-1.2c0-0.2-0.1-0.4-0.3-0.7l1.5-1.6c0.2,0.5,0.3,1,0.3,1.4c0,0.5-0.1,1.1-0.4,1.8l-0.5,1.5
		c-0.4,1-0.5,1.8-0.5,2.2c0,0.4,0.1,0.6,0.4,0.7l1.1,0.4L117.6,293.9z"/>
	<path id="XMLID_83_" class="st8" d="M122.1,295.3l-5.1-1.6l0.6-2l4.3,1.3c0-0.4,0-0.7-0.1-1c0-0.2-0.2-0.4-0.4-0.9l1.2-1.6
		c0.3,0.6,0.4,1.1,0.4,1.6c0,0.5-0.1,1.2-0.4,2.1L122.1,295.3z M124.4,287.2l-1.4,1.3l-1-1l-1,1l-1.3-1.2l1.3-1.2l1,0.9l1.1-1
		L124.4,287.2z"/>
	<path id="XMLID_81_" class="st8" d="M132.2,298c-0.6-0.2-1.1-0.3-1.5-0.5c-0.4-0.2-0.8-0.4-1.1-0.7c-0.4,0.1-0.7,0.2-1,0.2
		c-0.3,0-0.7-0.1-1.2-0.2l-1.3-0.4c-0.4-0.1-0.6-0.3-0.8-0.5c-0.2-0.2-0.3-0.6-0.3-1c-0.4,0.3-0.8,0.6-1.3,0.6
		c-0.4,0.1-0.8,0.1-1.2-0.1l-1.2-0.3l0.5-2.1l1.2,0.3c0.6,0.2,1.1,0.1,1.6-0.1c0.6-0.3,1-0.8,1.2-1.6l0.5,0.2
		c-0.1,0.2-0.1,0.3-0.2,0.5c-0.1,0.2-0.1,0.4-0.2,0.7c-0.1,0.3,0,0.5,0.1,0.7c0.1,0.2,0.3,0.4,0.6,0.4l1,0.3
		c0.7,0.2,1.2,0.2,1.5,0.1c0.4-0.1,0.7-0.5,0.8-1c0-0.1,0.1-0.2,0.2-0.3c0.1,0,0.2-0.1,0.4-0.2l0.4-0.1c0,0.1,0,0.2-0.1,0.4
		c0,0.2-0.1,0.3-0.1,0.3c-0.1,0.3-0.2,0.6-0.4,1.1c0.2,0.1,0.4,0.3,0.6,0.4c0.2,0.1,0.5,0.3,0.8,0.4c0-0.2,0-0.4,0-0.7
		c-0.1-0.3-0.1-0.5-0.1-0.6c0-0.1,0.1-0.2,0.1-0.3c0,0,0.1-0.1,0.2-0.2l0.9-0.7c0.1,0.4,0.1,0.7,0.1,1c0,0.3-0.1,0.6-0.2,1
		L132.2,298z"/>
	<path id="XMLID_79_" class="st8" d="M137.7,299.1l-3.8-0.8c-0.4-0.1-0.6-0.2-0.8-0.4c-0.2-0.2-0.3-0.5-0.2-0.9
		c0-0.2,0.1-0.5,0.2-0.7c0.1-0.3,0.2-0.5,0.3-0.8l0.3,0.1c0,0.2,0.1,0.3,0.2,0.5c0.1,0.1,0.3,0.2,0.5,0.2l2.9,0.6
		c0-0.8-0.1-1.4-0.3-2c-0.2-0.4-0.5-0.8-0.9-1.2l1.1-2.3c0.6,0.7,1,1.4,1.1,2.3c0.1,0.8,0.1,1.8-0.2,3L137.7,299.1z"/>
	<path id="XMLID_77_" class="st8" d="M144.6,300.5c-0.1,0.3-0.3,0.7-0.8,1.2c-0.5,0.5-1,0.8-1.6,1.1c-0.7,0.3-1.2,0.5-1.6,0.4
		c-0.5-0.1-1-0.3-1.5-0.7c-0.5-0.3-1.1-0.9-2.1-1.7l0.4-0.4c0.5,0.4,0.8,0.7,1.1,0.8c0.3,0.2,0.6,0.3,1,0.3c0.4,0.1,0.8,0,1.2-0.1
		c0.4-0.1,1-0.4,1.8-0.9c1.1-0.6,1.6-1.1,1.7-1.5c0-0.2,0-0.5-0.1-0.9c-0.1-0.4-0.3-0.8-0.6-1.1l0.8-2c0.3,0.4,0.5,0.9,0.7,1.4
		c0.1,0.5,0.1,1.1,0,1.7L144.6,300.5z"/>
	<path id="XMLID_74_" class="st8" d="M152.1,300.7c-0.1,0.9-0.6,1.7-1.6,2.5c-0.9,0.8-1.8,1.1-2.6,1c-0.5-0.1-1-0.3-1.5-0.6
		c-0.5-0.3-1.3-1-2.4-2l0.4-0.4c0.6,0.5,1,0.8,1.4,0.9c0.3,0.1,0.7,0.2,1.1,0.3c0.5,0.1,1.1,0,1.7-0.2c0.7-0.3,1.4-0.7,2.2-1.4
		c-0.2,0-0.4,0-0.6,0c-0.6-0.1-1-0.3-1.3-0.7c-0.3-0.4-0.4-0.9-0.3-1.4c0.1-0.8,0.4-1.5,0.9-2.2c0.5-0.7,1.1-1.1,1.6-1
		c0.5,0.1,0.8,0.4,1,1c0.2,0.6,0.3,1.3,0.2,2.1L152.1,300.7z M151.3,299c-0.1-0.9-0.3-1.3-0.8-1.4c-0.2,0-0.3,0-0.4,0.1
		c-0.1,0.1-0.2,0.2-0.2,0.4c0,0.2,0.1,0.4,0.3,0.5c0.2,0.2,0.5,0.2,0.9,0.3L151.3,299z"/>
	<path id="XMLID_72_" class="st8" d="M158.2,301.7l-6.9-0.6l0.2-2.1l5.5,0.4c-0.2-0.3-0.4-0.5-0.6-0.7c-0.2-0.2-0.4-0.4-0.6-0.6
		c-0.3-0.3-0.6-0.5-0.9-0.8l-0.3,0.3c-0.5-0.5-0.7-0.8-0.8-0.9c-0.3-0.3-0.4-0.7-0.3-1.1c0-0.5,0.1-0.9,0.2-1.1
		c0.1-0.3,0.4-0.5,0.8-0.8c0.3-0.2,0.7-0.3,1.1-0.5c0.3-0.1,0.7-0.2,1.2-0.4c0.2-0.1,0.7-0.2,1.5-0.4l-0.2,1.9c0,0-0.3,0-0.7,0.1
		c-0.6,0.1-1,0.2-1.4,0.3c-0.5,0.1-0.7,0.3-0.7,0.3c0,0,0.2,0.3,0.6,0.7c0.5,0.5,0.9,1,1.3,1.5c0.6,0.7,1,1.4,1.3,2.1L158.2,301.7z"
		/>
	<path id="XMLID_70_" class="st8" d="M167,302l-1.1,0c-1,0-2,0-2.8,0.2c-0.8,0.1-1.2,0.3-1.2,0.5c0.2,0.6,0.4,1.2,0.5,1.8
		c0.2,0.6,0.2,1.1,0.2,1.6c0,0.4-0.1,0.6-0.1,0.9c-0.1,0.2-0.2,0.5-0.4,0.7c0-0.7-0.2-1.4-0.4-2.2c-0.1-0.3-0.2-0.8-0.5-1.7
		c-0.2-0.5-0.3-0.9-0.2-1.1c0-0.2,0.1-0.6,0.2-0.9c0.1-0.3,0.3-0.6,0.4-0.8c0.2-0.3,0.5-0.5,1-0.6c0.5-0.1,1.1-0.2,2.1-0.3
		c-0.4-0.6-0.8-0.9-1.2-0.9c-0.1,0-0.3,0-0.4,0.1c-0.1,0.1-0.4,0.3-0.7,0.7l-0.4-0.2c0.3-0.8,0.6-1.4,1-1.8c0.4-0.4,0.8-0.6,1.2-0.6
		c0.4,0,0.8,0.2,1.3,0.6c0.5,0.4,1,1.1,1.6,1.9L167,302z"/>
	<path id="XMLID_67_" class="st8" d="M171.6,302l-5.3,0.1l0-2.1l4.5-0.1c-0.1-0.4-0.2-0.7-0.4-0.9c-0.1-0.1-0.3-0.4-0.6-0.7l0.7-1.9
		c0.4,0.4,0.7,0.9,0.9,1.4c0.2,0.5,0.2,1.2,0.3,2.2L171.6,302z M171.5,303.3l-0.9,1.6l-1.2-0.6l-0.7,1.3l-1.6-0.8l0.9-1.5l1.3,0.6
		l0.7-1.3L171.5,303.3z"/>
	<path id="XMLID_65_" class="st8" d="M175.6,301.8L171,302l-0.1-2.1l3.7-0.1l-1.2-5.3l-0.6-0.3c0-0.3,0-0.6,0.1-0.9
		c0.1-0.4,0.3-0.9,0.6-1.5l0.4,0.2c0,0,0,0.1,0,0.3c0,0.2,0.1,0.3,0.4,0.5c0.2,0.1,0.6,0.3,1,0.4c0,0.3-0.1,0.7-0.2,1
		c-0.1,0.3-0.2,0.6-0.3,0.9l-0.3-0.1l1.1,4.8L175.6,301.8z"/>
	<path id="XMLID_61_" class="st8" d="M180.9,301.4l-5.9,0.4l-0.2-2.1l5.1-0.4c0-0.5-0.1-0.8-0.1-1c-0.1-0.3-0.2-0.5-0.3-0.8
		c-0.2,0.3-0.4,0.6-0.7,0.8c-0.3,0.2-0.6,0.3-1,0.3c-0.5,0-0.8-0.1-1.2-0.3c-0.3-0.3-0.5-0.6-0.5-1c0-0.6,0.1-1.4,0.5-2.2
		c0.4-1,0.8-1.5,1.3-1.5c0.6,0,1.2,0.4,1.8,1.3c0.6,0.9,0.9,1.9,1,3L180.9,301.4z M179.3,291l-0.8,1.7l-1.3-0.5l-0.6,1.3l-1.6-0.7
		l0.8-1.6l1.3,0.5l0.6-1.3L179.3,291z M178.7,296.3c-0.2-0.2-0.3-0.4-0.4-0.5c-0.1-0.1-0.3-0.1-0.4-0.1c-0.2,0-0.3,0.1-0.4,0.2
		c-0.1,0.2-0.2,0.3-0.2,0.5c0,0.1,0.1,0.2,0.2,0.3c0.1,0.1,0.2,0.1,0.4,0.1c0.1,0,0.3-0.1,0.4-0.1
		C178.3,296.6,178.5,296.4,178.7,296.3z"/>
	<path id="XMLID_58_" class="st8" d="M183.4,298.9c0,0.5,0,0.9-0.1,1.3c-0.1,0.4-0.3,0.9-0.5,1.6l-0.5-0.1c0.1-0.7,0.1-1.2,0-1.7
		c0-0.3-0.1-0.8-0.2-1.4c-0.1-0.6-0.2-1.2-0.4-1.8c-0.1-0.6-0.4-1.3-0.6-2.1c-0.1-0.3-0.2-0.5-0.2-0.6c0-0.2,0-0.4,0.2-0.9
		c0.1-0.4,0.3-0.9,0.6-1.5l0.8,2.7c0.3,1,0.5,1.9,0.7,2.7C183.2,297.7,183.3,298.3,183.4,298.9z M183.9,303.8c0,0.2-0.1,0.3-0.2,0.4
		c-0.1,0.1-0.1,0.1-0.3,0.2l-1.8,0.7c0.1-0.2,0.2-0.3,0.3-0.4c0.1-0.1,0.2-0.2,0.4-0.3c-0.2-0.1-0.3-0.2-0.4-0.2
		c-0.1-0.1-0.1-0.2-0.1-0.2c0-0.1,0-0.1,0-0.2c0-0.1,0.1-0.2,0.2-0.3c0.3-0.5,0.7-0.8,1-0.8c0.1,0,0.2,0,0.3,0.1
		c0.1,0.1,0.1,0.1,0.1,0.2c0,0.1,0,0.2,0,0.2c0,0.1-0.1,0.2-0.1,0.3c-0.3-0.1-0.5-0.1-0.6-0.1c-0.1,0-0.2,0-0.3,0.1
		c-0.1,0-0.1,0.1-0.2,0.1c0,0.1,0.2,0.2,0.4,0.3c0.3,0.1,0.5,0.2,0.6,0.2C183.3,304,183.5,303.9,183.9,303.8z"/>
	<path id="XMLID_54_" class="st8" d="M190.3,289.1l-0.7,1.6l-1.3-0.4l-0.5,1.3l-1.7-0.6l0.7-1.5l1.3,0.4l0.6-1.3L190.3,289.1z
		 M193.8,299.7l-1.1,0.2c-0.2,0-0.4,0-0.6,0c-0.3-0.1-0.7-0.3-1-0.7c-0.4-0.5-0.7-1.2-0.9-2.2c-0.3,0.5-0.6,0.8-0.8,1.1
		c-0.3,0.3-0.5,0.5-0.7,0.5c-0.1,0-0.2,0-0.4,0l-1.1,0c-0.5,0-0.7,0-0.8-0.1c-0.1,0-0.2-0.1-0.2-0.2c0-0.1,0.1-0.6,0.4-1.4
		s0.5-1.3,0.6-1.5c0.1-0.2,0.3-0.4,0.7-0.7c0.2-0.2,0.5-0.4,0.8-0.7l0.4-0.3c0-0.1-0.1-0.1-0.1-0.2c0-0.1,0-0.1,0-0.2
		c0-0.2,0-0.5,0-0.8s0.2-0.7,0.4-1.2l1.5,4.7c0.2,0.7,0.5,1.2,0.7,1.5c0.2,0.2,0.4,0.2,0.6,0.2l1.1-0.2L193.8,299.7z M189.9,295.8
		l-0.3-0.9c-0.2,0.1-0.3,0.2-0.4,0.3c-0.3,0.2-0.5,0.4-0.7,0.5c-0.1,0.1-0.2,0.2-0.3,0.3c-0.1,0.1-0.1,0.2-0.1,0.3
		c0,0.1,0.1,0.1,0.3,0.1c0.2,0,0.4,0,0.6,0c0.1,0,0.2-0.1,0.4-0.2C189.5,296.2,189.7,296,189.9,295.8z"/>
	<path id="XMLID_51_" class="st8" d="M200.9,298.3c-0.6,0.1-1.3,0.1-2.1,0.1c-0.7,0-1.4-0.1-2-0.3c-0.2,0.5-0.6,0.9-1,1.1
		c-0.2,0.1-0.5,0.2-0.9,0.3l-1.7,0.3l-0.4-2.1l1.7-0.3c0.5-0.1,0.9-0.2,1.2-0.4c0.4-0.2,0.6-0.5,0.6-0.9c0.2-0.7,0.5-1.3,0.9-1.9
		c0.4-0.5,0.7-0.7,1-0.8c0.3-0.1,0.7,0.3,1.3,1c0.6,0.8,1,1.5,1.1,2.2L200.9,298.3z M198.8,296.3c0-0.1-0.2-0.3-0.5-0.5
		c-0.3-0.3-0.6-0.4-0.8-0.3c-0.2,0-0.4,0.3-0.4,0.8c0.3,0,0.5,0.1,0.7,0.1c0.5,0.1,0.8,0.1,0.8,0.1
		C198.8,296.4,198.9,296.4,198.8,296.3z"/>
	<path id="XMLID_48_" class="st8" d="M207.9,296c0.2,0.9,0,1.8-0.6,2.9c-0.6,1.1-1.3,1.7-2.1,1.9c-0.5,0.1-1,0.1-1.6,0
		c-0.6-0.1-1.6-0.5-2.9-1l0.2-0.5c0.7,0.2,1.2,0.3,1.6,0.4c0.3,0,0.7,0,1.1-0.1c0.5-0.1,1-0.4,1.5-0.8c0.5-0.5,1-1.2,1.5-2.1
		c-0.2,0.1-0.4,0.2-0.6,0.2c-0.5,0.1-1,0.1-1.4-0.2c-0.4-0.3-0.7-0.7-0.8-1.2c-0.2-0.8-0.2-1.6,0-2.4c0.2-0.9,0.6-1.4,1.1-1.5
		c0.4-0.1,0.9,0.1,1.3,0.6c0.4,0.5,0.8,1.1,1,1.9L207.9,296z M206.6,294.7c-0.4-0.8-0.8-1.1-1.2-1c-0.2,0-0.3,0.1-0.4,0.3
		c-0.1,0.2-0.1,0.3-0.1,0.4c0,0.2,0.2,0.3,0.4,0.4c0.2,0.1,0.6,0.1,0.9,0L206.6,294.7z"/>
	<path id="XMLID_46_" class="st8" d="M214,294.8l-6.6,1.9l-0.6-2.1l5.3-1.6c-0.3-0.2-0.5-0.3-0.8-0.4c-0.2-0.1-0.5-0.2-0.8-0.3
		c-0.4-0.1-0.7-0.3-1.1-0.4l-0.2,0.3c-0.6-0.3-1-0.5-1.1-0.6c-0.4-0.2-0.6-0.5-0.7-0.9c-0.1-0.5-0.2-0.9-0.2-1.1
		c0-0.3,0.2-0.7,0.5-1c0.3-0.3,0.5-0.6,0.9-0.9c0.2-0.2,0.6-0.5,1-0.8c0.2-0.1,0.6-0.4,1.2-0.9l0.5,1.8c0,0-0.2,0.1-0.6,0.4
		c-0.5,0.3-0.9,0.6-1.2,0.8c-0.4,0.3-0.6,0.5-0.6,0.6c0,0,0.3,0.2,0.8,0.4c0.7,0.3,1.2,0.6,1.7,0.9c0.8,0.5,1.5,1,2,1.5L214,294.8z"
		/>
	<path id="XMLID_44_" class="st8" d="M222.6,291.9l-9.2,3.2l-0.7-2l5.7-2c-0.9-0.4-1.6-0.6-2.3-0.7c-0.6-0.1-1.1,0-1.6,0.1
		c-0.1,0-0.3,0.1-0.4,0.2c-0.1,0.1-0.3,0.1-0.5,0.3c0.1-0.7,0.2-1.3,0.5-1.7c0.3-0.4,0.6-0.7,1.1-0.9c0.4-0.1,0.7-0.2,1.1-0.1
		c0.4,0,0.8,0.2,1.4,0.4c0.4,0.2,1,0.4,1.8,0.8c0.5,0.3,0.9,0.4,1.2,0.5c0.3,0.1,0.6,0,1.1,0L222.6,291.9z"/>
</g>
<g id="XMLID_24_">
	<path id="XMLID_41_" class="st9" d="M273.2,270.4C273.2,270.4,273.2,270.4,273.2,270.4C273.2,270.4,273.2,270.4,273.2,270.4
		C273.2,270.4,273.2,270.4,273.2,270.4C273.2,270.4,273.2,270.4,273.2,270.4C273.2,270.4,273.2,270.4,273.2,270.4
		C273.2,270.5,273.2,270.5,273.2,270.4C273.2,270.5,273.2,270.5,273.2,270.4l-0.3,0l0.1,0.1c0,0,0,0,0,0c0,0,0,0,0,0c0,0,0,0,0,0
		c0,0,0,0,0,0c0,0,0,0,0,0c0,0,0,0,0,0c0,0,0,0,0,0c0,0,0,0,0,0l-0.3-0.3c0,0,0,0,0,0c0,0,0,0,0,0c0,0,0,0,0,0c0,0,0,0,0,0
		c0,0,0,0,0,0c0,0,0,0,0,0c0,0,0,0,0,0c0,0,0,0,0,0l0.1,0.1l0-0.2c0,0,0,0,0,0c0,0,0,0,0,0c0,0,0,0,0,0c0,0,0,0,0,0c0,0,0,0,0,0
		c0,0,0,0,0,0c0,0,0,0,0,0c0,0,0,0,0,0c0,0,0,0,0,0c0,0,0,0,0,0l0,0.2L273.2,270.4C273.2,270.4,273.2,270.4,273.2,270.4
		C273.2,270.4,273.2,270.4,273.2,270.4z"/>
	<path id="XMLID_38_" class="st9" d="M273.5,270.2C273.5,270.2,273.5,270.2,273.5,270.2C273.5,270.2,273.5,270.2,273.5,270.2
		C273.5,270.2,273.5,270.2,273.5,270.2C273.5,270.2,273.5,270.2,273.5,270.2C273.5,270.2,273.5,270.2,273.5,270.2
		C273.5,270.2,273.5,270.2,273.5,270.2C273.5,270.2,273.5,270.2,273.5,270.2C273.4,270.2,273.4,270.2,273.5,270.2l-0.1,0
		c0,0,0,0,0,0c0,0,0,0,0,0c0,0,0,0,0,0c0,0,0,0,0,0l0,0l0.1,0.1c0,0,0,0,0,0c0,0,0,0,0,0c0,0,0,0,0,0c0,0,0,0,0,0c0,0,0,0,0,0
		c0,0,0,0,0,0c0,0,0,0,0,0c0,0,0,0,0,0l-0.3-0.3c0,0,0,0,0,0c0,0,0,0,0,0l0.1-0.1c0,0,0,0,0,0c0,0,0,0,0,0c0,0,0,0,0,0c0,0,0,0,0,0
		s0,0,0,0c0,0,0,0,0,0c0,0,0,0,0,0c0,0,0,0,0,0c0,0,0,0,0,0c0,0,0,0,0,0c0,0,0,0,0,0c0,0,0,0,0,0c0,0,0,0,0,0c0,0,0,0,0,0
		L273.5,270.2C273.5,270.2,273.5,270.2,273.5,270.2C273.5,270.2,273.5,270.2,273.5,270.2z M273.2,270C273.2,270,273.2,270,273.2,270
		C273.2,270,273.2,270,273.2,270C273.1,270,273.1,270,273.2,270c-0.1,0-0.1,0-0.1,0l0,0l0.1,0.1l0,0
		C273.2,270.1,273.2,270.1,273.2,270C273.2,270.1,273.2,270.1,273.2,270C273.2,270.1,273.2,270,273.2,270
		C273.2,270,273.2,270,273.2,270z"/>
	<path id="XMLID_36_" class="st9" d="M273.5,269.6C273.5,269.6,273.5,269.6,273.5,269.6C273.5,269.7,273.5,269.7,273.5,269.6
		C273.5,269.7,273.5,269.7,273.5,269.6C273.5,269.7,273.5,269.7,273.5,269.6C273.5,269.7,273.5,269.7,273.5,269.6
		C273.5,269.7,273.5,269.7,273.5,269.6C273.5,269.7,273.5,269.7,273.5,269.6c-0.1,0.1-0.1,0.1-0.1,0.1c0,0,0,0,0,0.1c0,0,0,0,0,0.1
		c0,0,0,0,0,0.1c0,0,0,0,0,0.1c0,0,0,0,0.1,0c0,0,0,0,0.1,0c0,0,0,0,0.1,0c0,0,0,0,0,0c0,0,0,0,0,0c0,0,0,0,0,0l-0.1-0.1l-0.1,0.1
		c0,0,0,0,0,0c0,0,0,0,0,0c0,0,0,0,0,0c0,0,0,0,0,0c0,0,0,0,0,0c0,0,0,0,0,0l0.1-0.1c0,0,0,0,0,0c0,0,0,0,0,0c0,0,0,0,0,0
		c0,0,0,0,0,0l0.1,0.1c0,0,0,0,0,0c0,0,0,0,0,0c0,0,0,0,0,0c0,0,0,0,0,0c0,0,0,0,0,0c0,0,0,0,0,0c0,0,0,0-0.1,0.1c0,0-0.1,0-0.1,0
		c0,0-0.1,0-0.1,0c0,0,0,0-0.1-0.1c0,0,0,0-0.1-0.1c0,0,0-0.1,0-0.1c0,0,0-0.1,0-0.1c0,0,0,0,0-0.1c0,0,0,0,0,0
		C273.4,269.7,273.4,269.6,273.5,269.6C273.5,269.6,273.5,269.6,273.5,269.6C273.5,269.6,273.5,269.6,273.5,269.6
		C273.5,269.6,273.5,269.6,273.5,269.6C273.5,269.6,273.5,269.6,273.5,269.6z"/>
	<path id="XMLID_34_" class="st9" d="M273.9,269.8C273.9,269.8,273.9,269.8,273.9,269.8C273.9,269.8,273.9,269.8,273.9,269.8
		C273.9,269.8,273.8,269.8,273.9,269.8C273.8,269.8,273.8,269.8,273.9,269.8C273.8,269.8,273.8,269.8,273.9,269.8
		C273.8,269.8,273.8,269.8,273.9,269.8C273.8,269.7,273.8,269.7,273.9,269.8C273.8,269.7,273.8,269.7,273.9,269.8z"/>
	<path id="XMLID_31_" class="st9" d="M274,269.4C274,269.4,274.1,269.4,274,269.4c0,0.1,0.1,0.1,0.1,0.1c0,0,0,0,0,0.1
		c0,0,0,0,0,0.1c0,0,0,0-0.1,0c0,0,0,0-0.1,0c0,0,0,0-0.1,0c0,0,0,0-0.1,0c0,0,0,0,0-0.1c0,0,0,0,0-0.1c0,0,0,0,0-0.1c0,0,0,0,0-0.1
		c0,0,0,0,0.1,0c0,0,0,0,0.1,0C273.9,269.4,274,269.4,274,269.4C274,269.4,274,269.4,274,269.4z M274,269.5
		C274,269.4,274,269.4,274,269.5C274,269.4,273.9,269.4,274,269.5c-0.1,0-0.1,0-0.1,0c0,0,0,0,0,0c0,0,0,0,0,0c0,0,0,0,0,0
		c0,0,0,0,0,0c0,0,0,0,0,0c0,0,0,0,0,0c0,0,0,0,0,0c0,0,0,0,0,0c0,0,0,0,0,0c0,0,0,0,0,0C274,269.5,274,269.5,274,269.5
		C274,269.5,274,269.5,274,269.5C274,269.5,274,269.5,274,269.5z"/>
	<path id="XMLID_29_" class="st9" d="M274.1,269.1C274.1,269.2,274.1,269.2,274.1,269.1C274.1,269.2,274.1,269.2,274.1,269.1
		C274.1,269.2,274.1,269.2,274.1,269.1C274.1,269.2,274.1,269.2,274.1,269.1C274.1,269.2,274.1,269.2,274.1,269.1
		C274.1,269.2,274.1,269.2,274.1,269.1C274.1,269.2,274.1,269.2,274.1,269.1C274.1,269.2,274.1,269.2,274.1,269.1
		C274.1,269.2,274.1,269.2,274.1,269.1C274.1,269.2,274.1,269.2,274.1,269.1c0,0.1,0,0.1,0,0.1c0,0,0,0,0,0l0.1,0.1c0,0,0,0,0,0
		c0,0,0,0,0,0c0,0,0,0,0,0c0,0,0,0,0,0c0,0,0,0,0,0c0,0,0,0,0,0c0,0,0,0,0,0c0,0,0,0,0,0l-0.2-0.2c0,0,0,0,0,0c0,0,0,0,0,0
		c0,0,0,0,0,0c0,0,0,0,0,0c0,0,0,0,0,0c0,0,0,0,0,0c0,0,0,0,0,0C274,269.2,274,269.2,274.1,269.1l-0.1,0.1
		C274,269.2,274,269.2,274.1,269.1C274,269.2,274,269.2,274.1,269.1C274.1,269.2,274.1,269.2,274.1,269.1
		C274.1,269.2,274.1,269.2,274.1,269.1C274.1,269.2,274.1,269.1,274.1,269.1C274.1,269.1,274.1,269.1,274.1,269.1
		C274.1,269.1,274.1,269.1,274.1,269.1C274.1,269.1,274.1,269.1,274.1,269.1C274.1,269.1,274.1,269.1,274.1,269.1
		C274.1,269.1,274.1,269.1,274.1,269.1C274.1,269.1,274.1,269.1,274.1,269.1C274.1,269.1,274.1,269.1,274.1,269.1z"/>
	<path id="XMLID_25_" class="st9" d="M274.3,268.9C274.3,268.9,274.3,268.9,274.3,268.9C274.3,269,274.3,269,274.3,268.9
		L274.3,268.9C274.3,269,274.3,269,274.3,268.9C274.3,269,274.3,269,274.3,268.9c0,0.1,0.1,0.1,0.1,0.1c0,0,0,0,0,0c0,0,0,0,0,0
		c0,0,0,0,0,0c0,0,0,0,0,0c0,0,0,0,0,0c0,0,0,0,0,0c0,0,0,0,0,0c0,0,0,0,0,0c0,0,0,0,0,0l0.1-0.1c0,0,0,0,0,0c0,0,0,0,0,0
		c0,0,0,0,0,0c0,0,0,0,0,0c0,0,0,0,0,0c0,0,0,0,0,0c0,0,0,0,0,0c0,0,0,0,0,0c0,0,0,0,0,0c0,0,0,0,0,0c0,0,0,0,0,0c0,0,0,0,0,0
		c0,0,0,0,0,0c0,0,0,0,0,0c0,0,0,0,0,0c0,0,0,0,0,0c0,0,0,0,0,0c0,0,0,0,0,0c0,0,0,0,0,0c0,0,0,0,0,0c0,0,0,0,0,0c0,0,0,0,0,0
		c0,0,0,0,0,0c0,0,0,0,0,0c0,0,0,0,0,0c0,0,0,0,0,0c0,0,0,0,0,0C274.2,269,274.2,269,274.3,268.9L274.3,268.9
		C274.3,268.9,274.3,268.9,274.3,268.9C274.3,268.9,274.3,268.9,274.3,268.9z M274.3,269C274.3,269,274.3,269,274.3,269
		C274.3,269,274.2,269,274.3,269c-0.1,0-0.1,0-0.1,0c0,0,0,0,0,0c0,0,0,0,0,0C274.2,269.1,274.2,269.1,274.3,269
		c-0.1,0.1-0.1,0.1,0,0.1S274.3,269.2,274.3,269C274.3,269.1,274.3,269.1,274.3,269C274.3,269.1,274.3,269.1,274.3,269
		C274.3,269.1,274.3,269.1,274.3,269C274.3,269.1,274.3,269.1,274.3,269z M274.5,269.2C274.5,269.2,274.5,269.2,274.5,269.2
		C274.5,269.2,274.4,269.2,274.5,269.2l-0.1,0.1c0,0,0,0,0,0c0,0,0,0,0,0c0,0,0,0,0,0c0,0,0,0,0,0c0,0,0,0,0,0
		C274.4,269.3,274.5,269.3,274.5,269.2C274.5,269.3,274.5,269.3,274.5,269.2C274.5,269.3,274.5,269.2,274.5,269.2
		C274.5,269.2,274.5,269.2,274.5,269.2C274.5,269.2,274.5,269.2,274.5,269.2z"/>
</g>
<g id="XMLID_13_">
	<path id="XMLID_22_" class="st4" d="M23.9,273.2l-0.8,1.1l-5.9-4.3c0,0.4,0,0.9-0.1,1.5c-0.1,0.6-0.2,1.1-0.3,1.5l-0.9-0.6
		c0.2-0.8,0.3-1.5,0.2-2.2c0-0.7-0.1-1.3-0.3-1.7l0.5-0.7L23.9,273.2z"/>
	<path id="XMLID_19_" class="st4" d="M24.7,268.2l0.7-1.1c0.5,0.2,0.9,0.3,1.3,0.2c0.4-0.1,0.7-0.4,1-0.8c0.2-0.3,0.4-0.7,0.4-1
		c0-0.3,0-0.7-0.1-1c-0.1-0.3-0.3-0.7-0.6-1c-0.3-0.4-0.6-0.7-1-1c0,0-0.1-0.1-0.2-0.1c0.1,0.4,0.2,0.9,0.1,1.4
		c-0.1,0.5-0.3,1-0.6,1.4c-0.5,0.7-1.2,1.2-2,1.4c-0.8,0.2-1.6,0-2.3-0.5c-0.8-0.6-1.2-1.3-1.3-2.1c-0.1-0.9,0.1-1.7,0.7-2.5
		c0.4-0.6,0.9-1,1.5-1.3c0.6-0.3,1.2-0.4,1.9-0.3c0.7,0.1,1.5,0.5,2.4,1.2c1,0.7,1.6,1.4,2,2c0.4,0.7,0.6,1.3,0.5,2
		c0,0.7-0.3,1.4-0.7,2c-0.5,0.7-1,1.1-1.7,1.3C26,268.7,25.4,268.6,24.7,268.2z M24.5,261.4c-0.5-0.4-1.1-0.5-1.6-0.4
		c-0.5,0.1-1,0.4-1.3,0.9c-0.3,0.5-0.5,1-0.4,1.6c0.1,0.6,0.4,1.1,0.9,1.5c0.5,0.3,1,0.5,1.5,0.3c0.5-0.1,1-0.4,1.3-0.9
		c0.3-0.5,0.5-1,0.4-1.6C25.3,262.2,25,261.8,24.5,261.4z"/>
	<path id="XMLID_16_" class="st4" d="M30,260.7l0.7-1.1c0.5,0.2,0.9,0.3,1.3,0.2c0.4-0.1,0.7-0.4,1-0.8c0.2-0.3,0.4-0.7,0.4-1
		c0-0.3,0-0.7-0.1-1c-0.1-0.3-0.3-0.7-0.6-1c-0.3-0.4-0.6-0.7-1-1c0,0-0.1-0.1-0.2-0.1c0.1,0.4,0.2,0.9,0.1,1.4
		c-0.1,0.5-0.3,1-0.6,1.4c-0.5,0.7-1.2,1.2-2,1.4c-0.8,0.2-1.6,0-2.3-0.5c-0.8-0.6-1.2-1.3-1.3-2.1c-0.1-0.9,0.1-1.7,0.7-2.5
		c0.4-0.6,0.9-1,1.5-1.3c0.6-0.3,1.2-0.4,1.9-0.3c0.7,0.1,1.5,0.5,2.4,1.2c1,0.7,1.6,1.4,2,2c0.4,0.7,0.6,1.3,0.5,2
		c0,0.7-0.3,1.4-0.7,2c-0.5,0.7-1,1.1-1.7,1.3C31.3,261.1,30.7,261,30,260.7z M29.8,253.8c-0.5-0.4-1.1-0.5-1.6-0.4
		c-0.5,0.1-1,0.4-1.3,0.9c-0.3,0.5-0.5,1-0.4,1.6c0.1,0.6,0.4,1.1,0.9,1.5c0.5,0.3,1,0.5,1.5,0.3c0.5-0.1,1-0.4,1.3-0.9
		c0.3-0.5,0.5-1,0.4-1.6C30.6,254.7,30.3,254.2,29.8,253.8z"/>
	<path id="XMLID_14_" class="st4" d="M40,248.2l0.9,0.6l-4.1,5.8c-0.2-0.2-0.4-0.4-0.6-0.6c-0.2-0.4-0.4-0.9-0.5-1.4
		c-0.1-0.6-0.2-1.3-0.2-2.2c0-1.4-0.1-2.5-0.2-3.1c-0.2-0.6-0.4-1.1-0.8-1.3c-0.4-0.3-0.8-0.3-1.2-0.2c-0.5,0.1-0.9,0.4-1.2,0.9
		c-0.4,0.5-0.5,1-0.5,1.5c0.1,0.5,0.3,0.9,0.8,1.3l-0.9,1c-0.7-0.6-1-1.3-1-2c0-0.8,0.3-1.6,0.8-2.4c0.6-0.8,1.3-1.4,2-1.6
		c0.7-0.2,1.4-0.1,2,0.3c0.3,0.2,0.5,0.5,0.7,0.9c0.2,0.4,0.3,0.8,0.4,1.4c0.1,0.6,0.1,1.4,0.2,2.6c0,1,0,1.6,0.1,1.9
		c0,0.3,0.1,0.6,0.2,0.8L40,248.2z"/>
</g>
<g id="XMLID_2_">
	<path id="XMLID_11_" class="st4" d="M289.3,250.3c-0.4,0.3-0.9,0.6-1.5,0.8c-0.1,0.1-0.7,0.3-1.6,0.7l-0.2-0.3
		c0.1-0.1,0.4-0.3,1-0.6c1-0.6,1.8-1.4,2.4-2.3c0.5-0.7,0.9-1.4,1.2-2.2c0.2-0.4,0.3-0.9,0.5-1.6l2-0.2c-0.2,0.7-0.3,1.3-0.6,1.8
		c-0.3,0.7-0.7,1.4-1.1,1.9C290.8,249.1,290.1,249.8,289.3,250.3z"/>
	<path id="XMLID_8_" class="st4" d="M293.7,260.3l-1.8,0.5c-0.1-0.7,0.2-1.4,0.7-2c0.5-0.5,1.4-1.2,2.8-2.1
		c-0.3-0.3-0.6-0.5-0.7-0.7c-0.1-0.2-0.3-0.3-0.4-0.5c-0.4-0.6-0.6-1.1-0.6-1.6c0-0.5,0.2-0.9,0.6-1.1c0.3-0.2,0.7-0.3,1.2-0.5
		c0.7-0.2,1.3-0.2,1.8,0c0.7,0.2,1.2,0.5,1.6,1.1c0.3,0.4,0.3,0.9,0.1,1.4c-0.2,0.4-0.6,0.8-1.2,1.3c-0.4,0.3-0.9,0.7-1.7,1.2
		c-1,0.8-1.6,1.4-1.9,1.9C293.9,259.5,293.8,259.8,293.7,260.3z M296.6,255.8c0.4-0.3,0.7-0.6,0.8-0.8c0.2-0.4,0.1-0.8-0.1-1.2
		c-0.2-0.3-0.5-0.6-0.9-0.7c-0.4-0.2-0.7-0.2-0.9-0.1c-0.2,0.1-0.3,0.4-0.2,0.7c0.1,0.3,0.2,0.7,0.5,1.1c0.1,0.2,0.2,0.3,0.4,0.6
		C296.4,255.5,296.5,255.7,296.6,255.8z"/>
	<path id="XMLID_5_" class="st4" d="M298.6,268l-1.8,0.5c-0.1-0.7,0.2-1.4,0.7-2c0.5-0.5,1.4-1.2,2.8-2.1c-0.3-0.3-0.6-0.5-0.7-0.7
		c-0.1-0.2-0.3-0.3-0.4-0.5c-0.4-0.6-0.6-1.1-0.6-1.6s0.2-0.9,0.6-1.1c0.3-0.2,0.7-0.3,1.2-0.5c0.7-0.2,1.3-0.2,1.8,0
		c0.7,0.2,1.2,0.5,1.6,1.1c0.3,0.4,0.3,0.9,0.1,1.4c-0.2,0.4-0.6,0.8-1.2,1.3c-0.4,0.3-0.9,0.7-1.7,1.2c-1,0.8-1.6,1.5-1.9,1.9
		C298.9,267.1,298.7,267.5,298.6,268z M301.5,263.5c0.4-0.3,0.7-0.6,0.8-0.8c0.2-0.4,0.1-0.8-0.1-1.2c-0.2-0.3-0.5-0.6-0.9-0.7
		c-0.4-0.2-0.7-0.2-0.9-0.1c-0.2,0.1-0.3,0.4-0.2,0.7c0.1,0.3,0.2,0.7,0.5,1.1c0.1,0.2,0.2,0.3,0.4,0.6
		C301.3,263.2,301.4,263.3,301.5,263.5z"/>
	<path id="XMLID_3_" class="st4" d="M308.8,271.6c-0.5,0.3-1,0.5-1.5,0.4c-0.5-0.1-1-0.4-1.3-1c0-0.1-0.1-0.3-0.3-0.6
		c-0.2,0.4-0.4,0.8-0.6,1c-0.3,0.4-0.6,0.8-1.1,1.2c-0.4,0.4-1.1,0.9-1.9,1.4c-0.1,0.1-0.4,0.2-0.7,0.5c-0.3,0.2-0.5,0.3-0.5,0.3
		l-0.2-0.2c1.2-1.4,2-2.3,2.3-2.7c0.6-0.8,1.1-1.5,1.4-2.2c0.3-0.7,0.7-1.7,1-2.9l1.7-0.4c-0.2,0.6-0.3,1.2-0.4,1.6
		c-0.1,0.8,0.1,1.4,0.5,2c0.4,0.6,0.8,0.9,1.3,0.9c0.3,0,0.7-0.1,1.2-0.4l0.2,0.3c-0.1,0.1-0.3,0.3-0.5,0.4
		C309.3,271.3,309,271.5,308.8,271.6z"/>
</g>
</svg>
